<svg xmlns="http://www.w3.org/2000/svg" width="25.59" height="20.79"><path d="M17.42.01a5.4 5.4 0 014.15 1.65 8.66 8.66 0 002.7-.91l.64-.36a5.27 5.27 0 01-1.7 2.47 2.51 2.51 0 01-.57.41v.01a9.77 9.77 0 002.97-.8v.01a8.54 8.54 0 01-1.78 2.04l-.82.65a15.15 15.15 0 01-.24 3.38c-1.32 5.89-4.8 9.89-10.3 11.61a15.83 15.83 0 01-7.42.31 19.91 19.91 0 01-3.1-1.01 12.91 12.91 0 01-1.48-.77l-.46-.28a9.22 9.22 0 001.68.06c.52-.08 1.02-.06 1.5-.16a10.77 10.77 0 003.15-1.14 5.97 5.97 0 001.42-.93 4.58 4.58 0 01-1.56-.28 5.3 5.3 0 01-3.33-3.36 5.2 5.2 0 002.34-.11 3.77 3.77 0 01-1.71-.69 5.03 5.03 0 01-2.48-4.49l.54.25a5.15 5.15 0 001.1.31 1.44 1.44 0 00.72.06h-.03c-.26-.3-.7-.51-.96-.84a5.37 5.37 0 01-1.18-4.76A6 6 0 011.78.97l.02.01a3.04 3.04 0 00.48.55 9.44 9.44 0 001.56 1.5 15.43 15.43 0 006.42 3.1 10.14 10.14 0 002.36.31 4.9 4.9 0 01.02-2.47A5.17 5.17 0 0115.61.45a5.9 5.9 0 011.17-.36l.64-.08z" fill="#f38181" fill-rule="evenodd"/></svg>