<svg xmlns="http://www.w3.org/2000/svg" width="25.59" height="25.62"><path d="M22.39 25.61H3.19a3.2 3.2 0 01-3.2-3.2V3.21a3.2 3.2 0 013.2-3.2h19.2a3.2 3.2 0 013.2 3.2v19.2a3.2 3.2 0 01-3.2 3.2zm-9.6-17.76a4.95 4.95 0 00-4.5 2.88.24.24 0 01-.02.05 6.4 6.4 0 00-.13.33l-.06.15-.1.34a4.72 4.72 0 00-.1.53l-.03.15a5.07 5.07 0 00-.02.53 4.96 4.96 0 109.92 0 5.07 5.07 0 00-.03-.53l-.03-.15a4.46 4.46 0 00-.1-.53l-.1-.34-.06-.15a6.4 6.4 0 00-.12-.33.24.24 0 01-.03-.05 4.95 4.95 0 00-4.5-2.88zm9.92-3.68a1.28 1.28 0 00-1.28-1.28h-2.56a1.28 1.28 0 00-1.28 1.28v2.56a1.28 1.28 0 001.28 1.28h2.56a1.28 1.28 0 001.28-1.28V4.17zm0 6.56h-2.36a7.84 7.84 0 11-15.12 0H2.87v10.72a1.28 1.28 0 001.28 1.28h17.28a1.28 1.28 0 001.28-1.28V10.73z" fill="#f38181" fill-rule="evenodd"/></svg>